<svg width="1024" height="1024" viewBox="0 0 1024 1024" fill="none" xmlns="http://www.w3.org/2000/svg">
  <rect width="1024" height="1024" rx="236" fill="url(#bg)"/>
  <rect x="78" y="78" width="868" height="868" rx="202" stroke="#C9DDF7" stroke-width="8"/>

  <rect x="184" y="168" width="656" height="688" rx="132" fill="#FFFFFF"/>
  <rect x="184" y="168" width="656" height="184" rx="132" fill="#0F5CC0"/>
  <rect x="184" y="258" width="656" height="94" fill="#0F5CC0"/>

  <rect x="238" y="230" width="548" height="18" rx="9" fill="#FFFFFF" fill-opacity="0.92"/>
  <rect x="238" y="276" width="548" height="18" rx="9" fill="#FFFFFF" fill-opacity="0.92"/>

  <circle cx="308" cy="168" r="30" fill="#0F5CC0"/>
  <circle cx="716" cy="168" r="30" fill="#0F5CC0"/>
  <rect x="286" y="112" width="44" height="118" rx="22" fill="#EAF4FF"/>
  <rect x="694" y="112" width="44" height="118" rx="22" fill="#EAF4FF"/>

  <rect x="242" y="406" width="540" height="26" rx="13" fill="#0F5CC0"/>
  <rect x="242" y="594" width="540" height="26" rx="13" fill="#0F5CC0"/>

  <rect x="250" y="446" width="164" height="120" rx="36" fill="#F5F9FF" stroke="#DCE9F8" stroke-width="10"/>
  <rect x="430" y="446" width="164" height="120" rx="36" fill="#F5F9FF" stroke="#DCE9F8" stroke-width="10"/>
  <rect x="610" y="446" width="164" height="120" rx="36" fill="#F5F9FF" stroke="#DCE9F8" stroke-width="10"/>

  <rect x="250" y="634" width="164" height="120" rx="36" fill="#F5F9FF" stroke="#DCE9F8" stroke-width="10"/>
  <rect x="430" y="634" width="164" height="120" rx="36" fill="#EAF4FF" stroke="#7EB3F2" stroke-width="10"/>
  <rect x="610" y="634" width="164" height="120" rx="36" fill="#F5F9FF" stroke="#DCE9F8" stroke-width="10"/>

  <path d="M512 498L548 562H476L512 498Z" stroke="#0F5CC0" stroke-width="20" stroke-linejoin="round"/>
  <path d="M512 702L476 638H548L512 702Z" stroke="#0F5CC0" stroke-width="20" stroke-linejoin="round"/>

  <defs>
    <linearGradient id="bg" x1="108" y1="92" x2="934" y2="934" gradientUnits="userSpaceOnUse">
      <stop stop-color="#F8FBFF"/>
      <stop offset="1" stop-color="#E7F1FF"/>
    </linearGradient>
  </defs>
</svg>
