<svg width="1024" height="1024" viewBox="0 0 1024 1024" fill="none" xmlns="http://www.w3.org/2000/svg">
  <rect width="1024" height="1024" rx="236" fill="url(#bg)"/>
  <rect x="56" y="56" width="912" height="912" rx="212" stroke="url(#frame)" stroke-width="8"/>

  <g filter="url(#shadow)">
    <rect x="180" y="156" width="664" height="712" rx="136" fill="#FFFFFF"/>
  </g>

  <path d="M180 292C180 216.889 240.889 156 316 156H708C783.111 156 844 216.889 844 292V344H180V292Z" fill="#0957BA"/>
  <rect x="236" y="222" width="552" height="16" rx="8" fill="#F8FBFF" fill-opacity="0.96"/>
  <rect x="236" y="262" width="552" height="16" rx="8" fill="#F8FBFF" fill-opacity="0.96"/>

  <circle cx="308" cy="156" r="32" fill="#0957BA"/>
  <circle cx="716" cy="156" r="32" fill="#0957BA"/>
  <rect x="284" y="96" width="48" height="120" rx="24" fill="#EAF4FF"/>
  <rect x="692" y="96" width="48" height="120" rx="24" fill="#EAF4FF"/>

  <rect x="236" y="404" width="552" height="18" rx="9" fill="#0D61C8"/>
  <rect x="236" y="602" width="552" height="18" rx="9" fill="#0D61C8"/>

  <rect x="248" y="444" width="164" height="126" rx="36" fill="#F5F9FF" stroke="#D9E8FB" stroke-width="10"/>
  <rect x="430" y="444" width="164" height="126" rx="36" fill="#F5F9FF" stroke="#D9E8FB" stroke-width="10"/>
  <rect x="612" y="444" width="164" height="126" rx="36" fill="#F5F9FF" stroke="#D9E8FB" stroke-width="10"/>
  <rect x="248" y="642" width="164" height="126" rx="36" fill="#F5F9FF" stroke="#D9E8FB" stroke-width="10"/>
  <rect x="430" y="642" width="164" height="126" rx="36" fill="#F5F9FF" stroke="#D9E8FB" stroke-width="10"/>
  <rect x="612" y="642" width="164" height="126" rx="36" fill="#F5F9FF" stroke="#D9E8FB" stroke-width="10"/>

  <g filter="url(#starShadow)">
    <circle cx="512" cy="506" r="116" fill="#F9FCFF" stroke="#D5E6FB" stroke-width="10"/>
    <path d="M512 420L588 552H436L512 420Z" stroke="#0B60C6" stroke-width="26" stroke-linejoin="round"/>
    <path d="M512 592L436 460H588L512 592Z" stroke="#0B60C6" stroke-width="26" stroke-linejoin="round"/>
  </g>

  <rect x="336" y="706" width="352" height="32" rx="16" fill="#0B60C6" fill-opacity="0.12"/>
  <rect x="402" y="706" width="220" height="32" rx="16" fill="#0B60C6"/>

  <defs>
    <linearGradient id="bg" x1="86" y1="78" x2="924" y2="968" gradientUnits="userSpaceOnUse">
      <stop stop-color="#FFFFFF"/>
      <stop offset="0.34" stop-color="#E8F4FF"/>
      <stop offset="0.72" stop-color="#BEDCFF"/>
      <stop offset="1" stop-color="#89BCF7"/>
    </linearGradient>
    <linearGradient id="frame" x1="72" y1="72" x2="952" y2="952" gradientUnits="userSpaceOnUse">
      <stop stop-color="#FFFFFF" stop-opacity="0.75"/>
      <stop offset="1" stop-color="#3B86E3" stop-opacity="0.32"/>
    </linearGradient>
    <filter id="shadow" x="136" y="132" width="752" height="800" filterUnits="userSpaceOnUse" color-interpolation-filters="sRGB">
      <feFlood flood-opacity="0" result="BackgroundImageFix"/>
      <feColorMatrix in="SourceAlpha" type="matrix" values="0 0 0 0 0 0 0 0 0 0 0 0 0 0 0 0 0 0 127 0" result="hardAlpha"/>
      <feOffset dy="20"/>
      <feGaussianBlur stdDeviation="22"/>
      <feColorMatrix type="matrix" values="0 0 0 0 0.0588235 0 0 0 0 0.27451 0 0 0 0 0.560784 0 0 0 0.18 0"/>
      <feBlend mode="normal" in2="BackgroundImageFix" result="effect1_dropShadow_0_1"/>
      <feBlend mode="normal" in="SourceGraphic" in2="effect1_dropShadow_0_1" result="shape"/>
    </filter>
    <filter id="starShadow" x="378" y="376" width="268" height="268" filterUnits="userSpaceOnUse" color-interpolation-filters="sRGB">
      <feFlood flood-opacity="0" result="BackgroundImageFix"/>
      <feColorMatrix in="SourceAlpha" type="matrix" values="0 0 0 0 0 0 0 0 0 0 0 0 0 0 0 0 0 0 127 0" result="hardAlpha"/>
      <feOffset dy="10"/>
      <feGaussianBlur stdDeviation="10"/>
      <feColorMatrix type="matrix" values="0 0 0 0 0.0352941 0 0 0 0 0.254902 0 0 0 0 0.54902 0 0 0 0.16 0"/>
      <feBlend mode="normal" in2="BackgroundImageFix" result="effect1_dropShadow_0_1"/>
      <feBlend mode="normal" in="SourceGraphic" in2="effect1_dropShadow_0_1" result="shape"/>
    </filter>
  </defs>
</svg>
